# xmcd
#
# Track frame offsets:
#	150
#	28363
#	66613
#	97850
#	122720
#	144460
#	166945
#
# Disc length: 2542 seconds
#
# Revision: 1
# Processed by: cddbd v1.4PL0 Copyright (c) Steve Scherf et al.
# Submitted via: audiograbber 1.82.01
#
DISCID=6109ec07
DTITLE=Tony Kiwan - Benet El Wafa
DYEAR=1900
DGENRE=
TTITLE0=Chayef Halo
TTITLE1=Benet El Wafa
TTITLE2=Et3awadna 3alek
TTITLE3=Molfet Lel Nazar
TTITLE4=3ajket Nas
TTITLE5=Dek Bwab El Nass
TTITLE6=Ya Rih elli Jayi
EXTD=
EXTT0=
EXTT1=
EXTT2=
EXTT3=
EXTT4=
EXTT5=
EXTT6=
PLAYORDER=
